<?xml version="1.0" encoding="UTF-8"?>
<svg xmlns="http://www.w3.org/2000/svg" xmlns:xlink="http://www.w3.org/1999/xlink" viewBox="0 0 32 32" width="32px" height="32px">
<g id="surface78540493">
<path style=" stroke:none;fill-rule:nonzero;fill:rgb(74.117649%,74.117649%,74.117649%);fill-opacity:1;" d="M 15.957031 1.332031 L 2 6.191406 L 4.207031 24.273438 L 15.96875 30.667969 L 27.796875 24.183594 L 30 6.105469 Z M 15.957031 1.332031 "/>
<path style=" stroke:none;fill-rule:nonzero;fill:rgb(60.392159%,60.000002%,60.000002%);fill-opacity:1;" d="M 28.546875 7.019531 L 16 2.757812 L 16 29.128906 L 26.554688 23.34375 Z M 28.546875 7.019531 "/>
<path style=" stroke:none;fill-rule:nonzero;fill:rgb(44.313726%,43.921569%,43.921569%);fill-opacity:1;" d="M 15.960938 2.742188 L 3.453125 7.097656 L 5.445312 23.429688 L 15.96875 29.148438 L 16 29.128906 L 16 2.757812 Z M 15.960938 2.742188 "/>
<path style=" stroke:none;fill-rule:nonzero;fill:rgb(74.117649%,74.117649%,74.117649%);fill-opacity:1;" d="M 16 3.996094 L 16 10.335938 L 21.71875 22.667969 L 24.65625 22.667969 Z M 16 3.996094 "/>
<path style=" stroke:none;fill-rule:nonzero;fill:rgb(77.64706%,74.509805%,73.725492%);fill-opacity:1;" d="M 7.34375 22.667969 L 10.28125 22.667969 L 16 10.335938 L 16 3.996094 Z M 7.34375 22.667969 "/>
<path style=" stroke:none;fill-rule:nonzero;fill:rgb(74.117649%,74.117649%,74.117649%);fill-opacity:1;" d="M 16 16 L 20 16 L 20 18.667969 L 16 18.667969 Z M 16 16 "/>
<path style=" stroke:none;fill-rule:nonzero;fill:rgb(77.64706%,74.509805%,73.725492%);fill-opacity:1;" d="M 12 16 L 16 16 L 16 18.667969 L 12 18.667969 Z M 12 16 "/>
</g>
</svg>
