<?xml version="1.0" encoding="UTF-8"?>
<svg xmlns="http://www.w3.org/2000/svg" xmlns:xlink="http://www.w3.org/1999/xlink" viewBox="0 0 32 32" width="32px" height="32px">
<g id="surface78902981">
<path style=" stroke:none;fill-rule:nonzero;fill:rgb(70.980394%,70.588237%,69.803923%);fill-opacity:1;" d="M 9.019531 14.351562 C 9.019531 14.75 9.0625 15.074219 9.136719 15.308594 C 9.21875 15.546875 9.328125 15.804688 9.476562 16.082031 C 9.53125 16.167969 9.550781 16.253906 9.550781 16.332031 C 9.550781 16.4375 9.488281 16.546875 9.347656 16.652344 L 8.679688 17.105469 C 8.582031 17.167969 8.488281 17.203125 8.402344 17.203125 C 8.292969 17.203125 8.1875 17.148438 8.082031 17.050781 C 7.933594 16.890625 7.804688 16.71875 7.699219 16.546875 C 7.59375 16.363281 7.484375 16.160156 7.367188 15.910156 C 6.539062 16.898438 5.496094 17.394531 4.238281 17.394531 C 3.34375 17.394531 2.632812 17.136719 2.109375 16.621094 C 1.589844 16.105469 1.324219 15.417969 1.324219 14.558594 C 1.324219 13.644531 1.644531 12.902344 2.292969 12.34375 C 2.941406 11.785156 3.804688 11.503906 4.898438 11.503906 C 5.261719 11.503906 5.632812 11.535156 6.027344 11.589844 C 6.421875 11.644531 6.824219 11.730469 7.25 11.828125 L 7.25 11.042969 C 7.25 10.226562 7.082031 9.65625 6.75 9.320312 C 6.410156 8.988281 5.835938 8.828125 5.015625 8.828125 C 4.644531 8.828125 4.261719 8.871094 3.867188 8.96875 C 3.472656 9.0625 3.089844 9.183594 2.71875 9.332031 C 2.546875 9.40625 2.421875 9.449219 2.34375 9.472656 C 2.269531 9.492188 2.21875 9.503906 2.175781 9.503906 C 2.027344 9.503906 1.953125 9.398438 1.953125 9.171875 L 1.953125 8.644531 C 1.953125 8.472656 1.972656 8.34375 2.027344 8.269531 C 2.078125 8.191406 2.175781 8.117188 2.324219 8.042969 C 2.699219 7.847656 3.144531 7.6875 3.664062 7.558594 C 4.1875 7.417969 4.742188 7.355469 5.324219 7.355469 C 6.59375 7.355469 7.519531 7.644531 8.113281 8.226562 C 8.699219 8.804688 8.996094 9.6875 8.996094 10.871094 L 8.996094 14.351562 Z M 4.695312 15.984375 C 5.046875 15.984375 5.410156 15.921875 5.792969 15.792969 C 6.175781 15.664062 6.515625 15.425781 6.804688 15.105469 C 6.972656 14.902344 7.101562 14.675781 7.164062 14.417969 C 7.230469 14.160156 7.273438 13.847656 7.273438 13.480469 L 7.273438 13.03125 C 6.964844 12.953125 6.632812 12.890625 6.292969 12.847656 C 5.953125 12.804688 5.621094 12.78125 5.292969 12.78125 C 4.578125 12.78125 4.058594 12.921875 3.707031 13.210938 C 3.355469 13.503906 3.183594 13.910156 3.183594 14.449219 C 3.183594 14.953125 3.3125 15.328125 3.578125 15.589844 C 3.835938 15.855469 4.207031 15.984375 4.695312 15.984375 Z M 13.242188 17.148438 C 13.050781 17.148438 12.925781 17.117188 12.839844 17.039062 C 12.753906 16.976562 12.679688 16.824219 12.617188 16.621094 L 10.113281 8.3125 C 10.050781 8.097656 10.019531 7.957031 10.019531 7.882812 C 10.019531 7.710938 10.101562 7.613281 10.273438 7.613281 L 11.316406 7.613281 C 11.519531 7.613281 11.65625 7.644531 11.730469 7.71875 C 11.816406 7.785156 11.878906 7.933594 11.945312 8.140625 L 13.734375 15.257812 L 15.394531 8.140625 C 15.445312 7.925781 15.511719 7.785156 15.59375 7.71875 C 15.679688 7.65625 15.828125 7.613281 16.019531 7.613281 L 16.871094 7.613281 C 17.074219 7.613281 17.210938 7.644531 17.296875 7.71875 C 17.382812 7.785156 17.457031 7.933594 17.5 8.140625 L 19.179688 15.34375 L 21.023438 8.140625 C 21.085938 7.925781 21.160156 7.785156 21.234375 7.71875 C 21.320312 7.65625 21.457031 7.613281 21.652344 7.613281 L 22.640625 7.613281 C 22.8125 7.613281 22.90625 7.699219 22.90625 7.882812 C 22.90625 7.9375 22.894531 7.988281 22.886719 8.054688 C 22.875 8.117188 22.851562 8.203125 22.8125 8.324219 L 20.246094 16.632812 C 20.183594 16.847656 20.105469 16.984375 20.023438 17.050781 C 19.9375 17.117188 19.800781 17.15625 19.617188 17.15625 L 18.703125 17.15625 C 18.5 17.15625 18.363281 17.125 18.277344 17.050781 C 18.191406 16.976562 18.117188 16.835938 18.074219 16.621094 L 16.425781 9.6875 L 14.785156 16.609375 C 14.734375 16.824219 14.667969 16.964844 14.585938 17.039062 C 14.5 17.117188 14.351562 17.148438 14.160156 17.148438 Z M 26.917969 17.4375 C 26.367188 17.4375 25.8125 17.371094 25.28125 17.242188 C 24.75 17.117188 24.332031 16.976562 24.058594 16.8125 C 23.886719 16.71875 23.769531 16.609375 23.726562 16.511719 C 23.683594 16.417969 23.664062 16.308594 23.664062 16.210938 L 23.664062 15.664062 C 23.664062 15.4375 23.746094 15.332031 23.90625 15.332031 C 23.972656 15.332031 24.035156 15.34375 24.097656 15.363281 C 24.164062 15.382812 24.257812 15.429688 24.363281 15.46875 C 24.726562 15.632812 25.121094 15.761719 25.535156 15.847656 C 25.960938 15.933594 26.375 15.976562 26.800781 15.976562 C 27.472656 15.976562 27.992188 15.855469 28.355469 15.621094 C 28.71875 15.382812 28.910156 15.039062 28.910156 14.597656 C 28.910156 14.296875 28.8125 14.050781 28.621094 13.847656 C 28.429688 13.644531 28.070312 13.460938 27.546875 13.289062 L 26.003906 12.804688 C 25.226562 12.558594 24.652344 12.191406 24.300781 11.707031 C 23.949219 11.234375 23.769531 10.707031 23.769531 10.148438 C 23.769531 9.699219 23.867188 9.300781 24.058594 8.957031 C 24.246094 8.613281 24.503906 8.3125 24.824219 8.074219 C 25.140625 7.828125 25.503906 7.644531 25.929688 7.515625 C 26.355469 7.386719 26.800781 7.332031 27.269531 7.332031 C 27.503906 7.332031 27.75 7.34375 27.984375 7.375 C 28.230469 7.40625 28.453125 7.453125 28.675781 7.492188 C 28.886719 7.546875 29.089844 7.601562 29.28125 7.664062 C 29.472656 7.730469 29.625 7.792969 29.730469 7.859375 C 29.878906 7.945312 29.984375 8.03125 30.050781 8.128906 C 30.113281 8.214844 30.144531 8.332031 30.144531 8.484375 L 30.144531 8.988281 C 30.144531 9.214844 30.058594 9.332031 29.902344 9.332031 C 29.816406 9.332031 29.675781 9.289062 29.496094 9.203125 C 28.890625 8.925781 28.207031 8.785156 27.453125 8.785156 C 26.847656 8.785156 26.367188 8.878906 26.039062 9.085938 C 25.707031 9.289062 25.539062 9.601562 25.539062 10.042969 C 25.539062 10.34375 25.644531 10.601562 25.855469 10.804688 C 26.070312 11.007812 26.464844 11.214844 27.027344 11.394531 L 28.539062 11.878906 C 29.304688 12.128906 29.859375 12.472656 30.1875 12.910156 C 30.515625 13.351562 30.675781 13.859375 30.675781 14.417969 C 30.675781 14.878906 30.582031 15.296875 30.402344 15.664062 C 30.210938 16.027344 29.953125 16.351562 29.625 16.609375 C 29.292969 16.878906 28.898438 17.070312 28.441406 17.210938 C 27.960938 17.363281 27.460938 17.4375 26.917969 17.4375 Z M 26.917969 17.4375 "/>
<path style=" stroke:none;fill-rule:nonzero;fill:rgb(44.313726%,44.313726%,44.313726%);fill-opacity:1;" d="M 28.929688 22.660156 C 25.429688 25.273438 20.34375 26.660156 15.96875 26.660156 C 9.835938 26.660156 4.3125 24.371094 0.140625 20.566406 C -0.1875 20.265625 0.109375 19.855469 0.503906 20.09375 C 5.015625 22.738281 10.582031 24.339844 16.339844 24.339844 C 20.226562 24.339844 24.492188 23.523438 28.417969 21.84375 C 29.003906 21.574219 29.503906 22.230469 28.929688 22.660156 Z M 30.386719 20.984375 C 29.941406 20.402344 27.429688 20.707031 26.292969 20.84375 C 25.949219 20.886719 25.898438 20.585938 26.207031 20.359375 C 28.207031 18.941406 31.496094 19.351562 31.878906 19.824219 C 32.261719 20.308594 31.773438 23.628906 29.898438 25.21875 C 29.613281 25.464844 29.335938 25.335938 29.460938 25.015625 C 29.886719 23.953125 30.835938 21.554688 30.386719 20.984375 Z M 30.386719 20.984375 "/>
</g>
</svg>
