<?xml version="1.0" encoding="UTF-8"?>
<svg xmlns="http://www.w3.org/2000/svg" xmlns:xlink="http://www.w3.org/1999/xlink" viewBox="0 0 32 32" width="32px" height="32px">
<g id="surface78544259">
<path style=" stroke:none;fill-rule:nonzero;fill:rgb(68.235296%,68.235296%,68.235296%);fill-opacity:1;" d="M 28 24.667969 C 28 26.507812 26.507812 28 24.667969 28 L 7.332031 28 C 5.492188 28 4 26.507812 4 24.667969 L 4 7.332031 C 4 5.492188 5.492188 4 7.332031 4 L 24.667969 4 C 26.507812 4 28 5.492188 28 7.332031 Z M 28 24.667969 "/>
<path style=" stroke:none;fill-rule:nonzero;fill:rgb(100%,100%,100%);fill-opacity:1;" d="M 22.019531 17.066406 C 21.585938 16.464844 20.960938 16.054688 20.152344 15.832031 C 20.152344 15.832031 20.832031 15.585938 21.445312 14.667969 C 21.8125 14.078125 22 13.375 22 12.546875 C 22 11.113281 21.480469 10.011719 20.441406 9.261719 C 19.398438 8.507812 18.226562 8 16.234375 8 L 10 8 L 10 24 L 16.953125 24 C 18.839844 23.988281 20.261719 23.578125 21.226562 22.800781 C 22.1875 22.007812 22.667969 20.832031 22.667969 19.265625 C 22.667969 18.398438 22.453125 17.667969 22.019531 17.066406 Z M 14 10.667969 C 14 10.667969 16.78125 10.667969 16.832031 10.667969 C 17.847656 10.667969 18.667969 11.488281 18.667969 12.5 C 18.667969 13.511719 17.847656 14.332031 16.832031 14.332031 C 16.78125 14.332031 14 14.332031 14 14.332031 Z M 17.332031 21.332031 L 14 21.332031 L 14 17.332031 L 17.332031 17.332031 C 18.441406 17.332031 19.332031 18.226562 19.332031 19.332031 C 19.332031 20.441406 18.441406 21.332031 17.332031 21.332031 Z M 17.332031 21.332031 "/>
</g>
</svg>
