<?xml version="1.0" encoding="UTF-8"?>
<svg xmlns="http://www.w3.org/2000/svg" xmlns:xlink="http://www.w3.org/1999/xlink" viewBox="0 0 32 32" width="32px" height="32px">
<g id="surface78933522">
<path style=" stroke:none;fill-rule:nonzero;fill:rgb(67.058825%,67.058825%,67.058825%);fill-opacity:1;" d="M 16 1.28125 C 15.542969 1.28125 15.085938 1.394531 14.675781 1.625 L 3.898438 7.683594 C 3.078125 8.144531 2.558594 9.007812 2.558594 9.941406 L 2.558594 22.058594 C 2.558594 22.996094 3.078125 23.859375 3.898438 24.320312 L 14.675781 30.375 C 15.496094 30.835938 16.503906 30.835938 17.324219 30.375 L 28.101562 24.320312 C 28.925781 23.859375 29.441406 22.992188 29.441406 22.058594 L 29.441406 9.941406 C 29.441406 9.007812 28.921875 8.144531 28.101562 7.683594 L 17.324219 1.625 C 16.914062 1.394531 16.457031 1.28125 16 1.28125 Z M 16 2.558594 C 16.238281 2.558594 16.484375 2.621094 16.699219 2.738281 L 27.476562 8.796875 C 27.90625 9.039062 28.160156 9.476562 28.160156 9.941406 L 28.160156 22.058594 C 28.160156 22.523438 27.90625 22.960938 27.476562 23.203125 L 16.699219 29.261719 C 16.265625 29.5 15.734375 29.5 15.300781 29.261719 L 4.523438 23.203125 C 4.09375 22.960938 3.839844 22.527344 3.839844 22.058594 L 3.839844 9.941406 C 3.839844 9.476562 4.09375 9.039062 4.523438 8.796875 L 15.300781 2.738281 C 15.515625 2.621094 15.761719 2.558594 16 2.558594 Z M 16 7.679688 C 11.417969 7.679688 7.679688 11.417969 7.679688 16 C 7.679688 20.582031 11.417969 24.320312 16 24.320312 C 18.617188 24.320312 21.046875 23.101562 22.617188 21.03125 L 23.054688 20.453125 L 19.179688 18.210938 L 18.828125 18.589844 C 18.109375 19.378906 17.082031 19.839844 16 19.839844 C 13.878906 19.839844 12.160156 18.121094 12.160156 16 C 12.160156 13.878906 13.878906 12.160156 16 12.160156 C 17.082031 12.160156 18.109375 12.621094 18.828125 13.410156 L 19.179688 13.789062 L 23.054688 11.546875 L 22.617188 10.96875 C 21.046875 8.898438 18.617188 7.679688 16 7.679688 Z M 16 8.960938 C 17.96875 8.960938 19.765625 9.800781 21.085938 11.207031 L 19.328125 12.222656 C 18.40625 11.414062 17.253906 10.878906 16 10.878906 C 13.183594 10.878906 10.878906 13.183594 10.878906 16 C 10.878906 18.816406 13.183594 21.121094 16 21.121094 C 17.253906 21.121094 18.40625 20.585938 19.328125 19.777344 L 21.085938 20.792969 C 19.765625 22.199219 17.96875 23.039062 16 23.039062 C 12.113281 23.039062 8.960938 19.886719 8.960938 16 C 8.960938 12.113281 12.113281 8.960938 16 8.960938 Z M 22.398438 12.800781 L 22.398438 14.078125 L 21.121094 14.078125 L 21.121094 15.359375 L 22.398438 15.359375 L 22.398438 16.640625 L 21.121094 16.640625 L 21.121094 17.921875 L 22.398438 17.921875 L 22.398438 19.199219 L 23.679688 19.199219 L 23.679688 17.921875 L 24.960938 17.921875 L 24.960938 19.199219 L 26.238281 19.199219 L 26.238281 17.921875 L 27.519531 17.921875 L 27.519531 16.640625 L 26.238281 16.640625 L 26.238281 15.359375 L 27.519531 15.359375 L 27.519531 14.078125 L 26.238281 14.078125 L 26.238281 12.800781 L 24.960938 12.800781 L 24.960938 14.078125 L 23.679688 14.078125 L 23.679688 12.800781 Z M 23.679688 15.359375 L 24.960938 15.359375 L 24.960938 16.640625 L 23.679688 16.640625 Z M 23.679688 15.359375 "/>
</g>
</svg>
