<?xml version="1.0" encoding="UTF-8"?>
<svg xmlns="http://www.w3.org/2000/svg" xmlns:xlink="http://www.w3.org/1999/xlink" viewBox="0 0 32 32" width="32px" height="32px">
<g id="surface78923304">
<path style=" stroke:none;fill-rule:nonzero;fill:rgb(54.901963%,54.901963%,54.901963%);fill-opacity:1;" d="M 5.332031 24.667969 L 15.488281 5.625 C 15.703125 5.222656 16.28125 5.230469 16.484375 5.636719 L 20 12.667969 Z M 5.332031 24.667969 "/>
<path style=" stroke:none;fill-rule:nonzero;fill:rgb(61.176473%,60.784316%,59.607846%);fill-opacity:1;" d="M 5.332031 24.660156 L 9.03125 1.863281 C 9.128906 1.265625 9.929688 1.136719 10.207031 1.671875 L 17.332031 15.328125 Z M 5.332031 24.660156 "/>
<path style=" stroke:none;fill-rule:nonzero;fill:rgb(36.078432%,35.686275%,35.686275%);fill-opacity:1;" d="M 5.339844 24.65625 L 5.472656 24.550781 L 17.15625 14.992188 L 13.863281 8.675781 Z M 5.339844 24.65625 "/>
<path style=" stroke:none;fill-rule:nonzero;fill:rgb(60.000002%,59.607846%,58.431375%);fill-opacity:1;" d="M 5.332031 24.667969 L 23.109375 7.523438 C 23.484375 7.164062 24.105469 7.378906 24.179688 7.890625 L 26.667969 24.667969 L 16.667969 30.496094 C 16.261719 30.722656 15.765625 30.722656 15.359375 30.496094 Z M 5.332031 24.667969 "/>
</g>
</svg>
