<?xml version="1.0" encoding="UTF-8"?>
<svg xmlns="http://www.w3.org/2000/svg" xmlns:xlink="http://www.w3.org/1999/xlink" viewBox="0 0 32 32" width="32px" height="32px">
<g id="surface78558370">
<path style=" stroke:none;fill-rule:nonzero;fill:rgb(67.058825%,67.058825%,67.058825%);fill-opacity:1;" d="M 27.734375 2.558594 L 4.265625 2.558594 C 3.324219 2.558594 2.558594 3.324219 2.558594 4.265625 L 2.558594 27.734375 C 2.558594 28.675781 3.324219 29.441406 4.265625 29.441406 L 27.734375 29.441406 C 28.675781 29.441406 29.441406 28.675781 29.441406 27.734375 L 29.441406 4.265625 C 29.441406 3.324219 28.675781 2.558594 27.734375 2.558594 Z M 17.28125 23.15625 C 17.28125 25.714844 15.78125 26.878906 13.589844 26.878906 C 11.609375 26.878906 10.183594 25.550781 9.601562 24.320312 L 11.613281 23.101562 C 12 23.789062 12.589844 24.320312 13.441406 24.320312 C 14.253906 24.320312 14.71875 24.003906 14.71875 22.765625 L 14.71875 14.71875 L 17.28125 14.71875 Z M 22.832031 26.878906 C 20.566406 26.878906 19.277344 25.738281 18.558594 24.320312 L 20.480469 23.039062 C 21.003906 23.894531 21.574219 24.710938 22.777344 24.710938 C 23.789062 24.710938 24.320312 24.207031 24.320312 23.507812 C 24.320312 22.671875 23.769531 22.375 22.65625 21.886719 L 22.046875 21.625 C 20.285156 20.875 19.113281 19.933594 19.113281 17.945312 C 19.113281 16.113281 20.511719 14.71875 22.691406 14.71875 C 24.242188 14.71875 25.359375 15.261719 26.164062 16.675781 L 24.261719 17.898438 C 23.84375 17.144531 23.390625 16.851562 22.691406 16.851562 C 21.976562 16.851562 21.523438 17.304688 21.523438 17.898438 C 21.523438 18.628906 21.976562 18.925781 23.023438 19.378906 L 23.632812 19.640625 C 25.710938 20.53125 26.878906 21.4375 26.878906 23.476562 C 26.878906 25.675781 25.152344 26.878906 22.832031 26.878906 Z M 22.832031 26.878906 "/>
</g>
</svg>
