<?xml version="1.0" encoding="UTF-8"?>
<svg xmlns="http://www.w3.org/2000/svg" xmlns:xlink="http://www.w3.org/1999/xlink" viewBox="0 0 32 32" width="32px" height="32px">
<g id="surface78873729">
<path style=" stroke:none;fill-rule:nonzero;fill:rgb(60.392159%,60.392159%,60.392159%);fill-opacity:1;" d="M 11.390625 4.460938 C 10.738281 4.460938 10.136719 4.605469 9.601562 4.914062 C 7.925781 5.878906 7.289062 8.234375 7.628906 11.167969 C 4.921875 12.339844 3.199219 14.066406 3.199219 16 C 3.199219 17.933594 4.921875 19.660156 7.628906 20.832031 C 7.289062 23.765625 7.925781 26.121094 9.601562 27.085938 C 10.132812 27.394531 10.738281 27.539062 11.390625 27.539062 C 12.78125 27.539062 14.386719 26.84375 16 25.644531 C 17.613281 26.84375 19.222656 27.539062 20.609375 27.539062 C 21.261719 27.539062 21.867188 27.394531 22.402344 27.085938 C 24.074219 26.121094 24.710938 23.765625 24.375 20.832031 C 27.082031 19.660156 28.800781 17.933594 28.800781 16 C 28.800781 14.066406 27.078125 12.339844 24.371094 11.167969 C 24.710938 8.234375 24.074219 5.878906 22.398438 4.914062 C 21.867188 4.605469 21.261719 4.460938 20.609375 4.460938 C 19.21875 4.460938 17.613281 5.15625 16 6.355469 C 14.386719 5.15625 12.78125 4.460938 11.390625 4.460938 Z M 11.390625 6.328125 C 12.226562 6.328125 13.328125 6.769531 14.523438 7.589844 C 13.820312 8.253906 13.132812 9.011719 12.46875 9.851562 C 11.394531 10.007812 10.378906 10.230469 9.441406 10.511719 C 9.433594 10.449219 9.421875 10.378906 9.417969 10.316406 C 9.304688 8.414062 9.722656 7 10.535156 6.53125 C 10.773438 6.394531 11.054688 6.328125 11.390625 6.328125 Z M 20.609375 6.328125 C 20.945312 6.328125 21.226562 6.394531 21.464844 6.53125 C 22.277344 7 22.695312 8.414062 22.582031 10.316406 C 22.578125 10.378906 22.566406 10.449219 22.558594 10.511719 C 21.621094 10.230469 20.605469 10.007812 19.527344 9.851562 C 18.867188 9.011719 18.179688 8.253906 17.476562 7.589844 C 18.671875 6.769531 19.773438 6.328125 20.609375 6.328125 Z M 16 8.777344 C 16.289062 9.039062 16.578125 9.320312 16.867188 9.621094 C 16.578125 9.613281 16.292969 9.601562 16 9.601562 C 15.707031 9.601562 15.421875 9.613281 15.136719 9.621094 C 15.425781 9.320312 15.710938 9.039062 16 8.777344 Z M 16 11.464844 C 16.882812 11.464844 17.722656 11.515625 18.515625 11.601562 C 19 12.261719 19.480469 12.957031 19.925781 13.734375 C 20.355469 14.476562 20.734375 15.238281 21.070312 16 C 20.734375 16.761719 20.355469 17.523438 19.925781 18.269531 C 19.480469 19.042969 19.003906 19.734375 18.519531 20.390625 C 17.699219 20.480469 16.855469 20.535156 16 20.535156 C 15.117188 20.535156 14.277344 20.484375 13.484375 20.398438 C 13 19.738281 12.519531 19.042969 12.074219 18.269531 C 11.644531 17.523438 11.265625 16.761719 10.929688 16 C 11.265625 15.238281 11.644531 14.476562 12.074219 13.734375 C 12.519531 12.960938 12.996094 12.265625 13.480469 11.609375 C 14.300781 11.519531 15.144531 11.464844 16 11.464844 Z M 21.0625 12.042969 C 21.484375 12.144531 21.890625 12.257812 22.273438 12.378906 C 22.1875 12.769531 22.082031 13.167969 21.960938 13.574219 C 21.824219 13.316406 21.691406 13.058594 21.542969 12.800781 C 21.390625 12.535156 21.222656 12.296875 21.0625 12.042969 Z M 10.933594 12.046875 C 10.777344 12.300781 10.609375 12.535156 10.457031 12.800781 C 10.308594 13.058594 10.175781 13.316406 10.039062 13.574219 C 9.917969 13.167969 9.808594 12.769531 9.722656 12.378906 C 10.113281 12.253906 10.519531 12.144531 10.933594 12.046875 Z M 7.964844 13.0625 C 8.191406 14.011719 8.503906 14.996094 8.902344 15.996094 C 8.503906 17 8.195312 17.980469 7.96875 18.925781 C 6.109375 18.03125 5.066406 16.914062 5.066406 16 C 5.066406 15.0625 6.082031 13.992188 7.785156 13.144531 C 7.839844 13.113281 7.90625 13.089844 7.964844 13.0625 Z M 24.03125 13.074219 C 25.890625 13.96875 26.933594 15.085938 26.933594 16 C 26.933594 16.9375 25.917969 18.007812 24.214844 18.855469 C 24.160156 18.886719 24.09375 18.910156 24.035156 18.9375 C 23.808594 17.988281 23.5 17.003906 23.097656 16 C 23.496094 15 23.804688 14.019531 24.03125 13.074219 Z M 16 13.867188 C 14.820312 13.867188 13.867188 14.820312 13.867188 16 C 13.867188 17.179688 14.820312 18.132812 16 18.132812 C 17.179688 18.132812 18.132812 17.179688 18.132812 16 C 18.132812 14.820312 17.179688 13.867188 16 13.867188 Z M 10.039062 18.425781 C 10.175781 18.683594 10.308594 18.941406 10.457031 19.199219 C 10.609375 19.464844 10.777344 19.703125 10.9375 19.957031 C 10.515625 19.855469 10.109375 19.742188 9.726562 19.621094 C 9.8125 19.230469 9.917969 18.832031 10.039062 18.425781 Z M 21.960938 18.429688 C 22.082031 18.832031 22.191406 19.230469 22.277344 19.621094 C 21.886719 19.746094 21.480469 19.855469 21.066406 19.953125 C 21.222656 19.699219 21.390625 19.464844 21.542969 19.199219 C 21.691406 18.945312 21.824219 18.6875 21.960938 18.429688 Z M 9.441406 21.488281 C 10.378906 21.769531 11.394531 21.992188 12.472656 22.148438 C 13.132812 22.988281 13.820312 23.746094 14.523438 24.410156 C 13.328125 25.230469 12.226562 25.675781 11.390625 25.675781 C 11.054688 25.675781 10.773438 25.605469 10.535156 25.46875 C 9.722656 25 9.304688 23.585938 9.417969 21.6875 C 9.421875 21.621094 9.433594 21.554688 9.441406 21.488281 Z M 22.558594 21.488281 C 22.566406 21.554688 22.578125 21.621094 22.582031 21.6875 C 22.695312 23.585938 22.277344 25 21.464844 25.46875 C 21.226562 25.605469 20.945312 25.675781 20.609375 25.675781 C 19.773438 25.675781 18.671875 25.230469 17.476562 24.410156 C 18.179688 23.746094 18.867188 22.988281 19.53125 22.148438 C 20.605469 21.992188 21.621094 21.769531 22.558594 21.488281 Z M 15.132812 22.378906 C 15.421875 22.386719 15.707031 22.398438 16 22.398438 C 16.292969 22.398438 16.578125 22.386719 16.867188 22.378906 C 16.578125 22.679688 16.289062 22.960938 16 23.222656 C 15.710938 22.960938 15.421875 22.679688 15.132812 22.378906 Z M 15.132812 22.378906 "/>
</g>
</svg>
