<?xml version="1.0" encoding="UTF-8" standalone="no" ?>
<!DOCTYPE svg PUBLIC "-//W3C//DTD SVG 1.1//EN" "http://www.w3.org/Graphics/SVG/1.1/DTD/svg11.dtd">
<svg xmlns="http://www.w3.org/2000/svg" xmlns:xlink="http://www.w3.org/1999/xlink" version="1.1" width="1080" height="1080" viewBox="0 0 1080 1080" xml:space="preserve">
<desc>Created with Fabric.js 5.2.4</desc>
<defs>
</defs>
<g transform="matrix(1 0 0 1 540 540)" id="e1e39783-c8f8-4d1a-a222-f1cc1851be05"  >
<rect style="stroke: none; stroke-width: 1; stroke-dasharray: none; stroke-linecap: butt; stroke-dashoffset: 0; stroke-linejoin: miter; stroke-miterlimit: 4; fill: rgb(255,255,255); fill-rule: nonzero; opacity: 1; visibility: hidden;" vector-effect="non-scaling-stroke"  x="-540" y="-540" rx="0" ry="0" width="1080" height="1080" />
</g>
<g transform="matrix(1 0 0 1 540 540)" id="00319054-2a4f-418d-9767-28fe2b3b3f1b"  >
</g>
<g transform="matrix(1 0 0 1 540 540)"  >
<g style="" vector-effect="non-scaling-stroke"   >
		<g transform="matrix(1 0 0 1 -8.3 -5.46)"  >
<path style="stroke: none; stroke-width: 1; stroke-dasharray: none; stroke-linecap: butt; stroke-dashoffset: 0; stroke-linejoin: miter; stroke-miterlimit: 4; fill: rgb(161,161,161); fill-rule: nonzero; opacity: 1;" vector-effect="non-scaling-stroke"  transform=" translate(-7.49, -10.71)" d="M 2.132812 20.175781 C 1.496094 18.242188 1.316406 16.203125 1.679688 14.101562 C 1.839844 13.230469 2.082031 12.394531 2.351562 11.546875 C 2.351562 11.546875 4.03125 6.140625 9.71875 3.671875 C 9.71875 3.671875 11.675781 2.65625 14.625 2.585938 C 14.625 2.585938 14.222656 2.203125 13.964844 2.035156 C 12.578125 1.128906 10.507812 0.832031 9.253906 2.105469 C 8.875 2.488281 8.558594 2.90625 8.207031 3.289062 C 7.804688 3.71875 7.316406 4.078125 6.757812 4.28125 C 6.269531 4.457031 5.785156 4.421875 5.285156 4.507812 C 4.773438 4.589844 4.25 4.769531 3.835938 5.089844 C 3.386719 5.449219 3.203125 5.925781 3.152344 6.476562 C 3.105469 6.90625 3.117188 7.347656 3.09375 7.777344 C 3.03125 9.042969 2.617188 9.398438 1.691406 10.101562 C 1.304688 10.390625 0.972656 10.773438 0.730469 11.175781 C 0 12.441406 1.167969 13.753906 1.230469 15.03125 C 1.242188 15.292969 1.21875 15.558594 1.121094 15.808594 C 1.023438 16.082031 0.828125 16.261719 0.667969 16.488281 C 0.449219 16.785156 0.304688 17.144531 0.367188 17.515625 C 0.425781 17.882812 0.621094 18.230469 0.804688 18.550781 C 1.15625 19.125 1.59375 19.640625 2.058594 20.128906 C 2.082031 20.128906 2.105469 20.152344 2.132812 20.175781" stroke-linecap="round" />
</g>
		<g transform="matrix(1 0 0 1 0.57 0.67)"  >
<path style="stroke: none; stroke-width: 1; stroke-dasharray: none; stroke-linecap: butt; stroke-dashoffset: 0; stroke-linejoin: miter; stroke-miterlimit: 4; fill: rgb(161,161,161); fill-rule: nonzero; opacity: 1;" vector-effect="non-scaling-stroke"  transform=" translate(-16.36, -16.84)" d="M 25.363281 24.757812 C 28.164062 23.566406 29.359375 21.5 29.359375 21.5 C 31.976562 18.003906 31.085938 14.316406 31.085938 14.316406 C 29.417969 17.871094 27.898438 18.851562 27.898438 18.851562 C 32 12.730469 27.921875 9.027344 27.921875 9.027344 C 29.589844 12.515625 27.371094 16.761719 27.371094 16.761719 C 25.511719 20.605469 22.867188 21.976562 22.867188 21.976562 C 25.8125 22.515625 27.980469 20.570312 27.980469 20.570312 C 23.757812 25.042969 19.179688 24.832031 19.179688 24.832031 C 21.101562 26.941406 23.988281 26.761719 23.988281 26.761719 C 20.214844 27.632812 16.667969 26.40625 13.757812 24.03125 C 13.210938 23.589844 12.6875 23.113281 12.199219 22.597656 C 12.199219 22.597656 11.761719 22.144531 11.675781 22.027344 L 11.664062 22.011719 C 11.605469 24.222656 13.953125 26.273438 13.953125 26.273438 C 11.007812 25.082031 9.65625 22.492188 9.65625 22.492188 C 9.65625 22.492188 7.671875 19.171875 9.109375 15.390625 C 10.542969 11.605469 14.890625 10.796875 14.890625 10.796875 C 18.484375 12.503906 21.527344 13.039062 21.527344 13.039062 C 27.945312 14.089844 27.578125 11.011719 27.578125 11.011719 C 27.640625 8.359375 23.5625 5.542969 23.5625 5.542969 C 16.292969 0.257812 9.71875 3.671875 9.71875 3.671875 C 4.03125 6.140625 2.351562 11.546875 2.351562 11.546875 C 2.082031 12.394531 1.839844 13.230469 1.679688 14.101562 C 1.058594 17.644531 1.996094 21 4.03125 23.984375 C 7.195312 28.613281 12.335938 30.210938 12.335938 30.210938 C 19.945312 32.742188 25.144531 29.019531 25.144531 29.019531 C 29.929688 25.796875 30.890625 22.074219 30.890625 22.074219 C 27.03125 25.03125 25.363281 24.757812 25.363281 24.757812 Z M 19.421875 7.347656 C 19.785156 7.347656 20.078125 7.632812 20.078125 7.992188 C 20.078125 8.347656 19.785156 8.636719 19.421875 8.636719 C 19.054688 8.636719 18.765625 8.347656 18.765625 7.992188 C 18.765625 7.632812 19.054688 7.347656 19.421875 7.347656 Z M 19.421875 7.347656" stroke-linecap="round" />
</g>
		<g transform="matrix(1 0 0 1 -1.26 -4.2)"  >
<path style="stroke: none; stroke-width: 1; stroke-dasharray: none; stroke-linecap: butt; stroke-dashoffset: 0; stroke-linejoin: miter; stroke-miterlimit: 4; fill: rgb(161,161,161); fill-rule: nonzero; opacity: 1;" vector-effect="non-scaling-stroke"  transform=" translate(-14.53, -11.97)" d="M 27.566406 11 C 27.628906 8.347656 23.550781 5.53125 23.550781 5.53125 C 16.28125 0.257812 9.703125 3.671875 9.703125 3.671875 C 4.019531 6.140625 2.339844 11.546875 2.339844 11.546875 C 2.007812 12.464844 1.71875 13.875 1.71875 13.875 C 1.363281 15.640625 1.523438 17.277344 1.523438 17.277344 C 1.667969 18.839844 2.019531 19.890625 2.019531 19.890625 C 2.386719 21.011719 2.558594 21.355469 2.558594 21.355469 C 2.542969 21.320312 2.484375 21.058594 2.484375 21.058594 C 2.484375 21.058594 1.972656 18.648438 2.449219 16.332031 C 2.449219 16.332031 2.863281 13.921875 4.542969 12.058594 C 4.542969 12.058594 7.269531 8.253906 12.347656 9.746094 C 12.347656 9.746094 13.441406 10.128906 13.820312 10.316406 C 14.199219 10.496094 14.855469 10.773438 14.855469 10.773438 C 18.449219 12.476562 21.492188 13.015625 21.492188 13.015625 C 27.933594 14.078125 27.566406 11 27.566406 11 Z M 19.421875 8.648438 C 19.054688 8.648438 18.765625 8.359375 18.765625 8.003906 C 18.765625 7.644531 19.054688 7.359375 19.421875 7.359375 C 19.785156 7.359375 20.078125 7.644531 20.078125 8.003906 C 20.078125 8.359375 19.785156 8.648438 19.421875 8.648438 Z M 19.421875 8.648438" stroke-linecap="round" />
</g>
		<g transform="matrix(1 0 0 1 -3.83 -9.48)"  >
<path style="stroke: none; stroke-width: 1; stroke-dasharray: none; stroke-linecap: butt; stroke-dashoffset: 0; stroke-linejoin: miter; stroke-miterlimit: 4; fill: rgb(161,161,161); fill-rule: nonzero; opacity: 1;" vector-effect="non-scaling-stroke"  transform=" translate(-11.96, -6.7)" d="M 15.257812 6.199219 L 11.105469 4.9375 C 11.082031 4.9375 10.957031 4.875 10.738281 4.9375 C 10.738281 4.9375 8.292969 5.542969 8.71875 6.855469 C 8.71875 6.855469 8.972656 7.679688 9.667969 8.480469 L 14.234375 8.265625 Z M 15.257812 6.199219" stroke-linecap="round" />
</g>
</g>
</g>
</svg>