<?xml version="1.0" encoding="UTF-8"?>
<svg xmlns="http://www.w3.org/2000/svg" xmlns:xlink="http://www.w3.org/1999/xlink" viewBox="0 0 24 24" width="24px" height="24px">
<g id="surface36846080">
<path style=" stroke:none;fill-rule:nonzero;fill:rgb(0%,0%,0%);fill-opacity:0.2902;" d="M 3 5 L 3 19 C 3 20.105469 3.894531 21 5 21 L 19 21 C 20.105469 21 21 20.105469 21 19 L 21 5 C 21 3.894531 20.105469 3 19 3 L 5 3 C 3.894531 3 3 3.894531 3 5 Z M 13.664062 12.449219 L 11.546875 12.449219 L 11.546875 19 L 9.839844 19 L 9.839844 12.449219 L 7.765625 12.449219 L 7.765625 11 L 13.664062 11 Z M 13.996094 18.625 L 13.996094 16.875 C 13.996094 16.875 14.953125 17.597656 16.101562 17.597656 C 17.25 17.597656 17.203125 16.847656 17.203125 16.742188 C 17.203125 15.652344 13.953125 15.652344 13.953125 13.242188 C 13.953125 9.960938 18.691406 11.257812 18.691406 11.257812 L 18.632812 12.816406 C 18.632812 12.816406 17.839844 12.285156 16.941406 12.285156 C 16.042969 12.285156 15.71875 12.710938 15.71875 13.167969 C 15.71875 14.34375 19 14.226562 19 16.597656 C 19 20.242188 13.996094 18.625 13.996094 18.625 Z M 13.996094 18.625 "/>
</g>
</svg>
