<?xml version="1.0" encoding="UTF-8"?>
<svg xmlns="http://www.w3.org/2000/svg" xmlns:xlink="http://www.w3.org/1999/xlink" viewBox="0 0 32 32" width="32px" height="32px">
<g id="surface78561519">
<path style=" stroke:none;fill-rule:nonzero;fill:rgb(65.882355%,65.882355%,65.882355%);fill-opacity:1;" d="M 28.800781 2.558594 L 3.199219 2.558594 C 2.847656 2.558594 2.558594 2.847656 2.558594 3.199219 L 2.558594 28.800781 C 2.558594 29.152344 2.847656 29.441406 3.199219 29.441406 L 28.800781 29.441406 C 29.152344 29.441406 29.441406 29.152344 29.441406 28.800781 L 29.441406 3.199219 C 29.441406 2.847656 29.152344 2.558594 28.800781 2.558594 Z M 18.558594 16.925781 L 15.359375 16.925781 L 15.359375 26.878906 L 12.800781 26.878906 L 12.800781 16.925781 L 9.601562 16.925781 L 9.601562 14.71875 L 18.558594 14.71875 Z M 19.277344 26.3125 L 19.277344 23.652344 C 19.277344 23.652344 20.730469 24.746094 22.476562 24.746094 C 24.21875 24.746094 24.152344 23.605469 24.152344 23.449219 C 24.152344 21.792969 19.210938 21.792969 19.210938 18.128906 C 19.210938 13.140625 26.410156 15.109375 26.410156 15.109375 L 26.320312 17.480469 C 26.320312 17.480469 25.113281 16.675781 23.75 16.675781 C 22.386719 16.675781 21.894531 17.324219 21.894531 18.015625 C 21.894531 19.804688 26.878906 19.625 26.878906 23.226562 C 26.878906 28.769531 19.277344 26.3125 19.277344 26.3125 Z M 19.277344 26.3125 "/>
</g>
</svg>
