<?xml version="1.0" encoding="UTF-8"?>
<svg xmlns="http://www.w3.org/2000/svg" xmlns:xlink="http://www.w3.org/1999/xlink" viewBox="0 0 32 32" width="32px" height="32px">
<g id="surface79051308">
<path style=" stroke:none;fill-rule:nonzero;fill:rgb(73.725492%,73.725492%,73.725492%);fill-opacity:1;" d="M 12.707031 4.96875 L 3.105469 6.40625 C 2.792969 6.453125 2.558594 6.722656 2.558594 7.039062 L 2.558594 14.71875 C 2.558594 15.074219 2.847656 15.359375 3.199219 15.359375 L 12.800781 15.359375 C 13.152344 15.359375 13.441406 15.074219 13.441406 14.71875 L 13.441406 5.601562 C 13.441406 5.414062 13.359375 5.238281 13.21875 5.113281 C 13.078125 4.992188 12.890625 4.941406 12.707031 4.96875 Z M 29.21875 2.714844 C 29.078125 2.59375 28.890625 2.542969 28.703125 2.566406 L 15.265625 4.582031 C 14.953125 4.628906 14.71875 4.898438 14.71875 5.214844 L 14.71875 14.71875 C 14.71875 15.074219 15.007812 15.359375 15.359375 15.359375 L 28.800781 15.359375 C 29.152344 15.359375 29.441406 15.074219 29.441406 14.71875 L 29.441406 3.199219 C 29.441406 3.015625 29.359375 2.835938 29.21875 2.714844 Z M 12.800781 16.640625 L 3.199219 16.640625 C 2.847656 16.640625 2.558594 16.925781 2.558594 17.28125 L 2.558594 24.960938 C 2.558594 25.277344 2.792969 25.546875 3.105469 25.59375 L 12.707031 27.03125 C 12.738281 27.039062 12.769531 27.039062 12.800781 27.039062 C 12.953125 27.039062 13.101562 26.984375 13.21875 26.886719 C 13.359375 26.761719 13.441406 26.585938 13.441406 26.398438 L 13.441406 17.28125 C 13.441406 16.925781 13.152344 16.640625 12.800781 16.640625 Z M 28.800781 16.640625 L 15.359375 16.640625 C 15.007812 16.640625 14.71875 16.925781 14.71875 17.28125 L 14.71875 26.785156 C 14.71875 27.101562 14.953125 27.371094 15.265625 27.417969 L 28.707031 29.433594 C 28.738281 29.4375 28.769531 29.441406 28.800781 29.441406 C 28.953125 29.441406 29.101562 29.386719 29.21875 29.285156 C 29.359375 29.164062 29.441406 28.984375 29.441406 28.800781 L 29.441406 17.28125 C 29.441406 16.925781 29.152344 16.640625 28.800781 16.640625 Z M 28.800781 16.640625 "/>
</g>
</svg>
